<?xml version="1.0" standalone="no"?>
<!DOCTYPE svg PUBLIC "-//W3C//DTD SVG 20010904//EN"
 "http://www.w3.org/TR/2001/REC-SVG-20010904/DTD/svg10.dtd">
<svg version="1.0" xmlns="http://www.w3.org/2000/svg"
 width="300.000000pt" height="300.000000pt" viewBox="0 0 300.000000 300.000000"
 preserveAspectRatio="xMidYMid meet">
<metadata>
Created by potrace 1.14, written by Peter Selinger 2001-2017
</metadata>
<g transform="translate(0.000000,300.000000) scale(0.100000,-0.100000)"
fill="#000000" stroke="none">
<path d="M0 2500 l0 -500 588 -1 c323 -1 574 -4 557 -8 -28 -6 -29 -7 -10 -19
17 -10 18 -13 5 -22 -8 -5 -36 -13 -62 -16 -50 -7 -66 -24 -24 -24 13 0 26 -6
28 -12 4 -10 10 -10 32 0 25 11 28 10 33 -7 3 -14 17 -22 45 -26 37 -7 43 -4
77 29 41 40 71 47 71 16 0 -11 -7 -20 -15 -20 -29 0 -64 -23 -76 -51 -9 -23
-18 -29 -40 -29 -16 0 -29 -4 -29 -10 0 -5 -15 -10 -34 -10 -19 0 -38 -5 -41
-10 -4 -6 -24 -22 -46 -36 -21 -13 -39 -31 -39 -39 0 -20 14 -19 31 1 9 11 22
14 43 10 22 -5 40 0 68 19 46 31 62 32 53 4 -5 -14 -2 -25 6 -30 12 -7 11 -11
-1 -23 -22 -21 -216 -116 -239 -116 -10 0 -24 -7 -31 -15 -10 -12 -9 -16 4
-21 52 -20 190 2 215 34 12 16 30 21 80 24 41 2 66 -1 68 -8 5 -14 -29 -24
-79 -24 -34 0 -38 -3 -38 -25 0 -14 -6 -27 -12 -29 -53 -15 -99 -27 -136 -36
-32 -8 -42 -15 -40 -28 3 -13 20 -19 78 -25 76 -8 94 -18 86 -49 -2 -10 2 -18
8 -18 15 0 46 -32 46 -48 0 -6 -17 -14 -37 -18 -41 -7 -123 -49 -123 -63 0 -5
14 -14 30 -21 35 -14 39 -30 9 -30 -12 0 -23 -8 -26 -20 -3 -11 -12 -20 -19
-20 -8 0 -14 -5 -14 -10 0 -20 32 -23 65 -7 36 17 52 12 33 -11 -18 -21 18
-44 62 -40 49 4 52 -23 5 -45 -32 -15 -91 -17 -625 -17 l-590 0 0 -500 0 -500
1500 0 1500 0 0 500 0 500 -580 0 c-380 0 -580 3 -580 10 0 6 -7 10 -15 10 -8
0 -15 6 -15 14 0 12 6 12 40 -1 34 -14 44 -14 65 -3 20 10 28 11 37 2 17 -17
75 -15 82 3 3 8 15 15 26 15 25 0 38 29 19 41 -19 12 -96 11 -104 -1 -4 -7
-13 -6 -26 1 -11 6 -27 8 -35 5 -8 -3 -14 1 -14 9 0 7 9 16 19 20 11 3 23 15
26 26 5 14 12 18 30 13 13 -3 36 1 52 9 l28 15 -30 12 c-16 6 -38 18 -47 27
-9 8 -21 12 -27 9 -6 -4 -23 11 -38 33 -16 22 -35 43 -43 46 -23 9 -73 55 -66
62 3 3 14 -1 23 -9 14 -13 31 -15 76 -10 l59 7 -24 21 c-12 11 -54 33 -93 49
-38 15 -79 36 -90 46 -12 10 -35 22 -53 25 -37 8 -51 22 -31 35 11 7 12 12 1
29 -7 11 -9 20 -5 20 8 0 64 -33 163 -95 54 -34 93 -44 105 -26 3 5 1 12 -5
16 -24 15 -9 35 24 35 28 0 35 -4 38 -22 2 -19 10 -23 38 -24 19 0 47 -4 63
-8 15 -5 27 -5 27 -1 0 22 -52 73 -114 113 -83 53 -80 51 -75 56 2 2 33 -2 69
-10 88 -19 106 -18 90 1 -7 8 -22 15 -35 15 -29 0 -38 11 -20 24 24 18 1 38
-51 43 -54 5 -104 21 -104 33 0 4 10 14 22 22 21 14 22 16 5 41 -26 39 -5 41
22 1 20 -29 29 -34 63 -34 22 0 38 3 36 8 -25 53 -54 83 -91 93 -23 6 -47 13
-54 15 -6 1 -9 12 -6 22 2 11 0 23 -6 26 -26 17 -9 28 31 22 36 -6 45 -4 59
15 17 23 53 28 99 14 19 -5 22 -4 10 4 -11 8 119 11 458 11 l472 0 0 500 0
500 -1500 0 -1500 0 0 -500z m1606 -515 c18 -14 18 -14 -8 -15 -32 0 -58 9
-58 21 0 14 44 10 66 -6z m211 -11 c27 -25 27 -26 8 -40 -27 -20 -48 -14 -55
16 -5 20 -13 26 -43 28 -55 5 -45 22 12 22 40 0 56 -5 78 -26z m-336 -23 c-7
-12 -16 -21 -21 -21 -12 0 -12 2 0 36 8 19 14 24 21 17 8 -8 7 -17 0 -32z
m207 -53 c16 -16 15 -28 -3 -28 -8 0 -15 2 -15 4 0 2 -3 11 -6 20 -7 19 7 21
24 4z m-228 -23 c0 -8 -7 -15 -15 -15 -16 0 -20 12 -8 23 11 12 23 8 23 -8z
m-76 -51 c13 -5 14 -9 5 -20 -15 -18 -49 -18 -49 -1 0 25 15 32 44 21z m-120
-125 c-3 -5 -10 -7 -15 -3 -5 3 -7 10 -3 15 3 5 10 7 15 3 5 -3 7 -10 3 -15z
m476 -14 c0 -8 -6 -15 -14 -15 -17 0 -28 14 -19 24 12 12 33 6 33 -9z m-379
-15 c31 -17 22 -28 -26 -32 -41 -3 -45 -1 -45 19 0 18 6 23 26 23 14 0 34 -5
45 -10z m534 -10 c-3 -5 -15 -10 -26 -10 -10 0 -19 5 -19 10 0 6 12 10 26 10
14 0 23 -4 19 -10z m-405 -120 c0 -21 -25 -33 -51 -25 -21 7 -26 41 -7 47 25
9 58 -4 58 -22z m-279 -90 c10 0 19 -4 19 -10 0 -5 -16 -10 -35 -10 -25 0 -35
4 -35 16 0 11 5 14 16 10 9 -3 24 -6 35 -6z m437 -81 c2 -5 2 -12 0 -16 -4 -9
-48 -11 -48 -1 0 4 -7 8 -15 8 -8 0 -15 6 -15 14 0 11 9 13 38 9 20 -3 38 -10
40 -14z m-178 -14 c0 -9 -9 -15 -25 -15 -26 0 -34 15 -12 23 23 10 37 7 37 -8z
m149 -34 c36 -19 60 -42 76 -70 13 -22 21 -41 17 -42 -41 -5 -130 5 -141 16
-15 15 -7 35 15 35 25 0 15 34 -15 55 -16 10 -27 23 -25 27 8 13 17 10 73 -21z
m-349 -1 c0 -5 -7 -10 -16 -10 -8 0 -12 5 -9 10 3 6 10 10 16 10 5 0 9 -4 9
-10z m480 -12 c0 -13 -23 -5 -28 10 -2 7 2 10 12 6 9 -3 16 -11 16 -16z m-290
-9 c0 -5 -11 -9 -25 -9 -28 0 -34 16 -7 23 20 4 32 -1 32 -14z m9 -39 c10 -5
7 -11 -11 -26 -13 -10 -27 -27 -31 -36 -4 -13 -17 -18 -42 -18 -19 0 -44 -5
-54 -12 -15 -9 -23 -9 -35 1 -18 15 -22 41 -6 41 5 0 19 10 30 23 38 40 101
52 149 27z m-303 -65 c-3 -9 -11 -13 -16 -10 -8 5 -7 11 1 21 14 18 24 11 15
-11z m602 3 c7 -7 12 -21 12 -31 0 -16 -3 -17 -15 -7 -8 6 -19 9 -25 5 -6 -4
-23 -4 -37 0 l-26 6 34 18 c43 23 43 23 57 9z m87 -18 c8 -13 -5 -13 -25 0
-13 8 -13 10 2 10 9 0 20 -4 23 -10z m-195 -10 c-20 -13 -43 -13 -35 0 3 6 16
10 28 10 18 0 19 -2 7 -10z m89 -109 c9 -6 10 -11 2 -15 -14 -9 -51 2 -51 15
0 11 30 12 49 0z m-354 -51 c3 -5 -1 -10 -10 -10 -9 0 -13 5 -10 10 3 6 8 10
10 10 2 0 7 -4 10 -10z"/>
</g>
</svg>
